<svg xmlns="http://www.w3.org/2000/svg" width="6144" height="512" viewBox="0 0 6144 512" preserveAspectRatio="none" shape-rendering="geometricPrecision"><g><g transform="translate(0 0)"><path d="M123 390 Q116 245 170 128 Q256 78 342 128 Q396 245 389 390 Q256 430 123 390Z" fill="#d78440" stroke="#f3b25d" stroke-width="8" stroke-linecap="round" stroke-linejoin="round" /><path d="M145 372 Q139 250 185 157 Q256 114 327 157 Q373 250 367 372" fill="none" stroke="#a35433" stroke-width="10" stroke-linecap="round" stroke-linejoin="round" /><path d="M205 108 Q256 72 307 108" fill="none" stroke="#bf6836" stroke-width="14" stroke-linecap="round" stroke-linejoin="round" /><circle cx="358" cy="167" r="22" fill="#17151a" opacity="0"/><circle cx="365" cy="202" r="18" fill="#17151a" opacity="0"/><circle cx="344" cy="240" r="24" fill="#17151a" opacity="0"/><circle cx="312" cy="279" r="19" fill="#17151a" opacity="0"/><circle cx="182" cy="197" r="5" fill="#ffcd7d" opacity="0.55"/><path d="M150 335q36-22 71 0M290 335q35-22 72 0" fill="none" stroke="#f3bc6d" stroke-width="5" stroke-linecap="round" stroke-linejoin="round" opacity="0.75"/></g><g transform="translate(512 0)"><path d="M123 390 Q116 245 170 128 Q256 78 342 128 Q396 245 389 390 Q256 430 123 390Z" fill="#d78440" stroke="#f3b25d" stroke-width="8" stroke-linecap="round" stroke-linejoin="round" /><path d="M145 372 Q139 250 185 157 Q256 114 327 157 Q373 250 367 372" fill="none" stroke="#a35433" stroke-width="10" stroke-linecap="round" stroke-linejoin="round" /><path d="M205 108 Q256 72 307 108" fill="none" stroke="#bf6836" stroke-width="14" stroke-linecap="round" stroke-linejoin="round" /><circle cx="358" cy="169.04545454545453" r="22" fill="#17151a" opacity="0.11363636363636365"/><circle cx="365" cy="205.97727272727272" r="18" fill="#17151a" opacity="0.11363636363636365"/><circle cx="344" cy="246.25" r="24" fill="#17151a" opacity="0.11363636363636365"/><circle cx="312" cy="285.8181818181818" r="19" fill="#17151a" opacity="0.11363636363636365"/><circle cx="182" cy="197" r="5" fill="#ffcd7d" opacity="0.7391390165570456"/><path d="M150 335q36-22 71 0M290 335q35-22 72 0" fill="none" stroke="#f3bc6d" stroke-width="5" stroke-linecap="round" stroke-linejoin="round" opacity="0.6944935184614996"/></g><g transform="translate(1024 0)"><path d="M123 390 Q116 245 170 128 Q256 78 342 128 Q396 245 389 390 Q256 430 123 390Z" fill="#d78440" stroke="#f3b25d" stroke-width="8" stroke-linecap="round" stroke-linejoin="round" /><path d="M145 372 Q139 250 185 157 Q256 114 327 157 Q373 250 367 372" fill="none" stroke="#a35433" stroke-width="10" stroke-linecap="round" stroke-linejoin="round" /><path d="M205 108 Q256 72 307 108" fill="none" stroke="#bf6836" stroke-width="14" stroke-linecap="round" stroke-linejoin="round" /><circle cx="358" cy="171.0909090909091" r="22" fill="#17151a" opacity="0.2272727272727273"/><circle cx="365" cy="209.95454545454547" r="18" fill="#17151a" opacity="0.2272727272727273"/><circle cx="344" cy="252.5" r="24" fill="#17151a" opacity="0.2272727272727273"/><circle cx="312" cy="292.6363636363636" r="19" fill="#17151a" opacity="0.2272727272727273"/><circle cx="182" cy="197" r="5" fill="#ffcd7d" opacity="0.8682869397956126"/><path d="M150 335q36-22 71 0M290 335q35-22 72 0" fill="none" stroke="#f3bc6d" stroke-width="5" stroke-linecap="round" stroke-linejoin="round" opacity="0.5455796138047636"/></g><g transform="translate(1536 0)"><path d="M123 390 Q116 245 170 128 Q256 78 342 128 Q396 245 389 390 Q256 430 123 390Z" fill="#d78440" stroke="#f3b25d" stroke-width="8" stroke-linecap="round" stroke-linejoin="round" /><path d="M145 372 Q139 250 185 157 Q256 114 327 157 Q373 250 367 372" fill="none" stroke="#a35433" stroke-width="10" stroke-linecap="round" stroke-linejoin="round" /><path d="M205 108 Q256 72 307 108" fill="none" stroke="#bf6836" stroke-width="14" stroke-linecap="round" stroke-linejoin="round" /><circle cx="358" cy="173.13636363636363" r="22" fill="#17151a" opacity="0.3409090909090909"/><circle cx="365" cy="213.9318181818182" r="18" fill="#17151a" opacity="0.3409090909090909"/><circle cx="344" cy="258.75" r="24" fill="#17151a" opacity="0.3409090909090909"/><circle cx="312" cy="299.45454545454544" r="19" fill="#17151a" opacity="0.3409090909090909"/><circle cx="182" cy="197" r="5" fill="#ffcd7d" opacity="0.8964806450472599"/><path d="M150 335q36-22 71 0M290 335q35-22 72 0" fill="none" stroke="#f3bc6d" stroke-width="5" stroke-linecap="round" stroke-linejoin="round" opacity="0.3504907825992498"/></g><g transform="translate(2048 0)"><path d="M123 390 Q116 245 170 128 Q256 78 342 128 Q396 245 389 390 Q256 430 123 390Z" fill="#d78440" stroke="#f3b25d" stroke-width="8" stroke-linecap="round" stroke-linejoin="round" /><path d="M145 372 Q139 250 185 157 Q256 114 327 157 Q373 250 367 372" fill="none" stroke="#a35433" stroke-width="10" stroke-linecap="round" stroke-linejoin="round" /><path d="M205 108 Q256 72 307 108" fill="none" stroke="#bf6836" stroke-width="14" stroke-linecap="round" stroke-linejoin="round" /><circle cx="358" cy="175.1818181818182" r="22" fill="#17151a" opacity="0.4545454545454546"/><circle cx="365" cy="217.9090909090909" r="18" fill="#17151a" opacity="0.4545454545454546"/><circle cx="344" cy="265" r="24" fill="#17151a" opacity="0.4545454545454546"/><circle cx="312" cy="306.27272727272725" r="19" fill="#17151a" opacity="0.4545454545454546"/><circle cx="182" cy="197" r="5" fill="#ffcd7d" opacity="0.8147776558545448"/><path d="M150 335q36-22 71 0M290 335q35-22 72 0" fill="none" stroke="#f3bc6d" stroke-width="5" stroke-linecap="round" stroke-linejoin="round" opacity="0.17110527974596645"/></g><g transform="translate(2560 0)"><path d="M123 390 Q116 245 170 128 Q256 78 342 128 Q396 245 389 390 Q256 430 123 390Z" fill="#d78440" stroke="#f3b25d" stroke-width="8" stroke-linecap="round" stroke-linejoin="round" /><path d="M145 372 Q139 250 185 157 Q256 114 327 157 Q373 250 367 372" fill="none" stroke="#a35433" stroke-width="10" stroke-linecap="round" stroke-linejoin="round" /><path d="M205 108 Q256 72 307 108" fill="none" stroke="#bf6836" stroke-width="14" stroke-linecap="round" stroke-linejoin="round" /><circle cx="358" cy="177.22727272727272" r="22" fill="#17151a" opacity="0.5681818181818181"/><circle cx="365" cy="221.88636363636363" r="18" fill="#17151a" opacity="0.5681818181818181"/><circle cx="344" cy="271.25" r="24" fill="#17151a" opacity="0.5681818181818181"/><circle cx="312" cy="313.09090909090907" r="19" fill="#17151a" opacity="0.5681818181818181"/><circle cx="182" cy="197" r="5" fill="#ffcd7d" opacity="0.6490925177104143"/><path d="M150 335q36-22 71 0M290 335q35-22 72 0" fill="none" stroke="#f3bc6d" stroke-width="5" stroke-linecap="round" stroke-linejoin="round" opacity="0.06432058011577296"/></g><g transform="translate(3072 0)"><path d="M123 390 Q116 245 170 128 Q256 78 342 128 Q396 245 389 390 Q256 430 123 390Z" fill="#d78440" stroke="#f3b25d" stroke-width="8" stroke-linecap="round" stroke-linejoin="round" /><path d="M145 372 Q139 250 185 157 Q256 114 327 157 Q373 250 367 372" fill="none" stroke="#a35433" stroke-width="10" stroke-linecap="round" stroke-linejoin="round" /><path d="M205 108 Q256 72 307 108" fill="none" stroke="#bf6836" stroke-width="14" stroke-linecap="round" stroke-linejoin="round" /><circle cx="358" cy="179.27272727272728" r="22" fill="#17151a" opacity="0.6818181818181818"/><circle cx="365" cy="225.86363636363637" r="18" fill="#17151a" opacity="0.6818181818181818"/><circle cx="344" cy="277.5" r="24" fill="#17151a" opacity="0.6818181818181818"/><circle cx="312" cy="319.9090909090909" r="19" fill="#17151a" opacity="0.6818181818181818"/><circle cx="182" cy="197" r="5" fill="#ffcd7d" opacity="0.4519772252525889"/><path d="M150 335q36-22 71 0M290 335q35-22 72 0" fill="none" stroke="#f3bc6d" stroke-width="5" stroke-linecap="round" stroke-linejoin="round" opacity="0.06400664347219859"/></g><g transform="translate(3584 0)"><path d="M123 390 Q116 245 170 128 Q256 78 342 128 Q396 245 389 390 Q256 430 123 390Z" fill="#d78440" stroke="#f3b25d" stroke-width="8" stroke-linecap="round" stroke-linejoin="round" /><path d="M145 372 Q139 250 185 157 Q256 114 327 157 Q373 250 367 372" fill="none" stroke="#a35433" stroke-width="10" stroke-linecap="round" stroke-linejoin="round" /><path d="M205 108 Q256 72 307 108" fill="none" stroke="#bf6836" stroke-width="14" stroke-linecap="round" stroke-linejoin="round" /><circle cx="358" cy="181.3181818181818" r="22" fill="#17151a" opacity="0.7954545454545454"/><circle cx="365" cy="229.8409090909091" r="18" fill="#17151a" opacity="0.7954545454545454"/><circle cx="344" cy="283.75" r="24" fill="#17151a" opacity="0.7954545454545454"/><circle cx="312" cy="326.72727272727275" r="19" fill="#17151a" opacity="0.7954545454545454"/><circle cx="182" cy="197" r="5" fill="#ffcd7d" opacity="0.2859527861483048"/><path d="M150 335q36-22 71 0M290 335q35-22 72 0" fill="none" stroke="#f3bc6d" stroke-width="5" stroke-linecap="round" stroke-linejoin="round" opacity="0.1702630442067339"/></g><g transform="translate(4096 0)"><path d="M123 390 Q116 245 170 128 Q256 78 342 128 Q396 245 389 390 Q256 430 123 390Z" fill="#d78440" stroke="#f3b25d" stroke-width="8" stroke-linecap="round" stroke-linejoin="round" /><path d="M145 372 Q139 250 185 157 Q256 114 327 157 Q373 250 367 372" fill="none" stroke="#a35433" stroke-width="10" stroke-linecap="round" stroke-linejoin="round" /><path d="M205 108 Q256 72 307 108" fill="none" stroke="#bf6836" stroke-width="14" stroke-linecap="round" stroke-linejoin="round" /><circle cx="358" cy="183.36363636363637" r="22" fill="#17151a" opacity="0.9090909090909092"/><circle cx="365" cy="233.8181818181818" r="18" fill="#17151a" opacity="0.9090909090909092"/><circle cx="344" cy="290" r="24" fill="#17151a" opacity="0.9090909090909092"/><circle cx="312" cy="333.54545454545456" r="19" fill="#17151a" opacity="0.9090909090909092"/><circle cx="182" cy="197" r="5" fill="#ffcd7d" opacity="0.20367881447802988"/><path d="M150 335q36-22 71 0M290 335q35-22 72 0" fill="none" stroke="#f3bc6d" stroke-width="5" stroke-linecap="round" stroke-linejoin="round" opacity="0.3493873883438417"/></g><g transform="translate(4608 0)"><path d="M123 390 Q116 245 170 128 Q256 78 342 128 Q396 245 389 390 Q256 430 123 390Z" fill="#d78440" stroke="#f3b25d" stroke-width="8" stroke-linecap="round" stroke-linejoin="round" /><path d="M145 372 Q139 250 185 157 Q256 114 327 157 Q373 250 367 372" fill="none" stroke="#a35433" stroke-width="10" stroke-linecap="round" stroke-linejoin="round" /><path d="M205 108 Q256 72 307 108" fill="none" stroke="#bf6836" stroke-width="14" stroke-linecap="round" stroke-linejoin="round" /><circle cx="358" cy="185" r="22" fill="#17151a" opacity="1"/><circle cx="365" cy="237" r="18" fill="#17151a" opacity="1"/><circle cx="344" cy="295" r="24" fill="#17151a" opacity="1"/><circle cx="312" cy="339" r="19" fill="#17151a" opacity="1"/><circle cx="182" cy="197" r="5" fill="#ffcd7d" opacity="0.23125095989670802"/><path d="M150 335q36-22 71 0M290 335q35-22 72 0" fill="none" stroke="#f3bc6d" stroke-width="5" stroke-linecap="round" stroke-linejoin="round" opacity="0.5445650353067086"/></g><g transform="translate(5120 0)"><path d="M123 390 Q116 245 170 128 Q256 78 342 128 Q396 245 389 390 Q256 430 123 390Z" fill="#d78440" stroke="#f3b25d" stroke-width="8" stroke-linecap="round" stroke-linejoin="round" /><path d="M145 372 Q139 250 185 157 Q256 114 327 157 Q373 250 367 372" fill="none" stroke="#a35433" stroke-width="10" stroke-linecap="round" stroke-linejoin="round" /><path d="M205 108 Q256 72 307 108" fill="none" stroke="#bf6836" stroke-width="14" stroke-linecap="round" stroke-linejoin="round" /><circle cx="358" cy="185" r="22" fill="#17151a" opacity="1"/><circle cx="365" cy="237" r="18" fill="#17151a" opacity="1"/><circle cx="344" cy="295" r="24" fill="#17151a" opacity="1"/><circle cx="312" cy="339" r="19" fill="#17151a" opacity="1"/><circle cx="182" cy="197" r="5" fill="#ffcd7d" opacity="0.35992389222914656"/><path d="M150 335q36-22 71 0M290 335q35-22 72 0" fill="none" stroke="#f3bc6d" stroke-width="5" stroke-linecap="round" stroke-linejoin="round" opacity="0.6938895596217785"/></g><g transform="translate(5632 0)"><path d="M123 390 Q116 245 170 128 Q256 78 342 128 Q396 245 389 390 Q256 430 123 390Z" fill="#d78440" stroke="#f3b25d" stroke-width="8" stroke-linecap="round" stroke-linejoin="round" /><path d="M145 372 Q139 250 185 157 Q256 114 327 157 Q373 250 367 372" fill="none" stroke="#a35433" stroke-width="10" stroke-linecap="round" stroke-linejoin="round" /><path d="M205 108 Q256 72 307 108" fill="none" stroke="#bf6836" stroke-width="14" stroke-linecap="round" stroke-linejoin="round" /><circle cx="358" cy="185" r="22" fill="#17151a" opacity="1"/><circle cx="365" cy="237" r="18" fill="#17151a" opacity="1"/><circle cx="344" cy="295" r="24" fill="#17151a" opacity="1"/><circle cx="312" cy="339" r="19" fill="#17151a" opacity="1"/><circle cx="182" cy="197" r="5" fill="#ffcd7d" opacity="0.5488851443724018"/><path d="M150 335q36-22 71 0M290 335q35-22 72 0" fill="none" stroke="#f3bc6d" stroke-width="5" stroke-linecap="round" stroke-linejoin="round" opacity="0.7499982244196813"/></g></g></svg>