<svg xmlns="http://www.w3.org/2000/svg" width="6144" height="512" viewBox="0 0 6144 512" preserveAspectRatio="none" shape-rendering="geometricPrecision"><g><g transform="translate(0 0)"><rect x="94" y="124" width="26" height="26" fill="#7ee1c1" opacity="0.55"/><rect x="126" y="152" width="14" height="14" fill="#ef8e62" opacity="0.55"/><rect x="382" y="332" width="32" height="18" fill="#b691f3" opacity="0.55"/><rect x="346" y="358" width="16" height="16" fill="#f0d36c" opacity="0.55"/><rect x="102" y="367" width="12" height="12" fill="#ef6f88" opacity="0.55"/><path d="M80 210h64M350 226h52" fill="none" stroke="#d9c9f2" stroke-width="4" stroke-linecap="round" stroke-linejoin="round" opacity="0.18"/></g><g transform="translate(512 0)"><rect x="76" y="124" width="26" height="26" fill="#7ee1c1" opacity="0.92"/><rect x="126" y="152" width="14" height="14" fill="#ef8e62" opacity="0.92"/><rect x="382" y="332" width="32" height="18" fill="#b691f3" opacity="0.92"/><rect x="368" y="358" width="16" height="16" fill="#f0d36c" opacity="0.92"/><rect x="102" y="367" width="12" height="12" fill="#ef6f88" opacity="0.92"/><path d="M80 218h120M350 219h90" fill="none" stroke="#d9c9f2" stroke-width="4" stroke-linecap="round" stroke-linejoin="round" opacity="0.7"/></g><g transform="translate(1024 0)"><rect x="94" y="124" width="26" height="26" fill="#7ee1c1" opacity="0.55"/><rect x="126" y="152" width="14" height="14" fill="#ef8e62" opacity="0.55"/><rect x="382" y="332" width="32" height="18" fill="#b691f3" opacity="0.55"/><rect x="346" y="358" width="16" height="16" fill="#f0d36c" opacity="0.55"/><rect x="102" y="367" width="12" height="12" fill="#ef6f88" opacity="0.55"/><path d="M80 210h64M350 226h52" fill="none" stroke="#d9c9f2" stroke-width="4" stroke-linecap="round" stroke-linejoin="round" opacity="0.18"/></g><g transform="translate(1536 0)"><rect x="94" y="124" width="26" height="26" fill="#7ee1c1" opacity="0.92"/><rect x="144" y="134" width="14" height="14" fill="#ef8e62" opacity="0.92"/><rect x="382" y="332" width="32" height="18" fill="#b691f3" opacity="0.92"/><rect x="346" y="340" width="16" height="16" fill="#f0d36c" opacity="0.92"/><rect x="102" y="367" width="12" height="12" fill="#ef6f88" opacity="0.92"/><path d="M80 226h120M350 212h90" fill="none" stroke="#d9c9f2" stroke-width="4" stroke-linecap="round" stroke-linejoin="round" opacity="0.7"/></g><g transform="translate(2048 0)"><rect x="76" y="124" width="26" height="26" fill="#7ee1c1" opacity="0.92"/><rect x="126" y="152" width="14" height="14" fill="#ef8e62" opacity="0.92"/><rect x="382" y="332" width="32" height="18" fill="#b691f3" opacity="0.92"/><rect x="368" y="358" width="16" height="16" fill="#f0d36c" opacity="0.92"/><rect x="102" y="367" width="12" height="12" fill="#ef6f88" opacity="0.92"/><path d="M80 218h120M350 219h90" fill="none" stroke="#d9c9f2" stroke-width="4" stroke-linecap="round" stroke-linejoin="round" opacity="0.7"/></g><g transform="translate(2560 0)"><rect x="94" y="124" width="26" height="26" fill="#7ee1c1" opacity="0.55"/><rect x="126" y="152" width="14" height="14" fill="#ef8e62" opacity="0.55"/><rect x="382" y="332" width="32" height="18" fill="#b691f3" opacity="0.55"/><rect x="346" y="358" width="16" height="16" fill="#f0d36c" opacity="0.55"/><rect x="102" y="367" width="12" height="12" fill="#ef6f88" opacity="0.55"/><path d="M80 210h64M350 226h52" fill="none" stroke="#d9c9f2" stroke-width="4" stroke-linecap="round" stroke-linejoin="round" opacity="0.18"/></g><g transform="translate(3072 0)"><rect x="94" y="124" width="26" height="26" fill="#7ee1c1" opacity="0.92"/><rect x="126" y="152" width="14" height="14" fill="#ef8e62" opacity="0.92"/><rect x="358" y="332" width="32" height="18" fill="#b691f3" opacity="0.92"/><rect x="346" y="358" width="16" height="16" fill="#f0d36c" opacity="0.92"/><rect x="110" y="367" width="12" height="12" fill="#ef6f88" opacity="0.92"/><path d="M80 234h120M350 205h90" fill="none" stroke="#d9c9f2" stroke-width="4" stroke-linecap="round" stroke-linejoin="round" opacity="0.7"/></g><g transform="translate(3584 0)"><rect x="94" y="124" width="26" height="26" fill="#7ee1c1" opacity="0.55"/><rect x="126" y="152" width="14" height="14" fill="#ef8e62" opacity="0.55"/><rect x="382" y="332" width="32" height="18" fill="#b691f3" opacity="0.55"/><rect x="346" y="358" width="16" height="16" fill="#f0d36c" opacity="0.55"/><rect x="102" y="367" width="12" height="12" fill="#ef6f88" opacity="0.55"/><path d="M80 210h64M350 226h52" fill="none" stroke="#d9c9f2" stroke-width="4" stroke-linecap="round" stroke-linejoin="round" opacity="0.18"/></g><g transform="translate(4096 0)"><rect x="94" y="124" width="26" height="26" fill="#7ee1c1" opacity="0.92"/><rect x="144" y="134" width="14" height="14" fill="#ef8e62" opacity="0.92"/><rect x="382" y="332" width="32" height="18" fill="#b691f3" opacity="0.92"/><rect x="346" y="340" width="16" height="16" fill="#f0d36c" opacity="0.92"/><rect x="102" y="367" width="12" height="12" fill="#ef6f88" opacity="0.92"/><path d="M80 226h120M350 212h90" fill="none" stroke="#d9c9f2" stroke-width="4" stroke-linecap="round" stroke-linejoin="round" opacity="0.7"/></g><g transform="translate(4608 0)"><rect x="94" y="124" width="26" height="26" fill="#7ee1c1" opacity="0.55"/><rect x="126" y="152" width="14" height="14" fill="#ef8e62" opacity="0.55"/><rect x="382" y="332" width="32" height="18" fill="#b691f3" opacity="0.55"/><rect x="346" y="358" width="16" height="16" fill="#f0d36c" opacity="0.55"/><rect x="102" y="367" width="12" height="12" fill="#ef6f88" opacity="0.55"/><path d="M80 210h64M350 226h52" fill="none" stroke="#d9c9f2" stroke-width="4" stroke-linecap="round" stroke-linejoin="round" opacity="0.18"/></g><g transform="translate(5120 0)"><rect x="76" y="124" width="26" height="26" fill="#7ee1c1" opacity="0.92"/><rect x="126" y="152" width="14" height="14" fill="#ef8e62" opacity="0.92"/><rect x="382" y="332" width="32" height="18" fill="#b691f3" opacity="0.92"/><rect x="368" y="358" width="16" height="16" fill="#f0d36c" opacity="0.92"/><rect x="102" y="367" width="12" height="12" fill="#ef6f88" opacity="0.92"/><path d="M80 218h120M350 219h90" fill="none" stroke="#d9c9f2" stroke-width="4" stroke-linecap="round" stroke-linejoin="round" opacity="0.7"/></g><g transform="translate(5632 0)"><rect x="94" y="124" width="26" height="26" fill="#7ee1c1" opacity="0.55"/><rect x="126" y="152" width="14" height="14" fill="#ef8e62" opacity="0.55"/><rect x="382" y="332" width="32" height="18" fill="#b691f3" opacity="0.55"/><rect x="346" y="358" width="16" height="16" fill="#f0d36c" opacity="0.55"/><rect x="102" y="367" width="12" height="12" fill="#ef6f88" opacity="0.55"/><path d="M80 210h64M350 226h52" fill="none" stroke="#d9c9f2" stroke-width="4" stroke-linecap="round" stroke-linejoin="round" opacity="0.18"/></g></g></svg>