<svg xmlns="http://www.w3.org/2000/svg" width="9216" height="512" viewBox="0 0 9216 512" preserveAspectRatio="none" shape-rendering="geometricPrecision"><g><g transform="translate(0 0)"><circle cx="114" cy="350" r="30" fill="#e8b74d" stroke="#fff0a4" stroke-width="5"/><ellipse cx="106" cy="347" rx="8" ry="20" fill="#fff0a4" opacity="0.45" transform="rotate(0 114 350)"/><line x1="102" y1="370" x2="128" y2="370" stroke="#8a5129" stroke-width="4" stroke-linecap="round" opacity=".7"/></g><g transform="translate(512 0)"><circle cx="137" cy="282" r="30" fill="#e8b74d" stroke="#fff0a4" stroke-width="5"/><ellipse cx="129" cy="279" rx="8" ry="20" fill="#fff0a4" opacity="0.5811123076955692" transform="rotate(22 137 282)"/><line x1="125" y1="302" x2="151" y2="302" stroke="#8a5129" stroke-width="4" stroke-linecap="round" opacity=".7"/></g><g transform="translate(1024 0)"><circle cx="194" cy="205" r="30" fill="#e8b74d" stroke="#fff0a4" stroke-width="5"/><ellipse cx="186" cy="202" rx="8" ry="20" fill="#fff0a4" opacity="0.6931304296606491" transform="rotate(44 194 205)"/><line x1="182" y1="225" x2="208" y2="225" stroke="#8a5129" stroke-width="4" stroke-linecap="round" opacity=".7"/></g><g transform="translate(1536 0)"><circle cx="270" cy="142" r="30" fill="#e8b74d" stroke="#fff0a4" stroke-width="5"/><ellipse cx="262" cy="139" rx="8" ry="20" fill="#fff0a4" opacity="0.7697409101749103" transform="rotate(66 270 142)"/><line x1="258" y1="162" x2="284" y2="162" stroke="#8a5129" stroke-width="4" stroke-linecap="round" opacity=".7"/></g><g transform="translate(2048 0)"><circle cx="352" cy="124" r="30" fill="#e8b74d" stroke="#fff0a4" stroke-width="5"/><ellipse cx="344" cy="121" rx="8" ry="20" fill="#fff0a4" opacity="0.7997867894566835" transform="rotate(88 352 124)"/><line x1="340" y1="144" x2="366" y2="144" stroke="#8a5129" stroke-width="4" stroke-linecap="round" opacity=".7"/></g><g transform="translate(2560 0)"><circle cx="400" cy="176" r="30" fill="#e8b74d" stroke="#fff0a4" stroke-width="5"/><ellipse cx="392" cy="173" rx="8" ry="20" fill="#fff0a4" opacity="0.778892417275068" transform="rotate(110 400 176)"/><line x1="388" y1="196" x2="414" y2="196" stroke="#8a5129" stroke-width="4" stroke-linecap="round" opacity=".7"/></g><g transform="translate(3072 0)"><circle cx="395" cy="254" r="30" fill="#e8b74d" stroke="#fff0a4" stroke-width="5"/><ellipse cx="387" cy="251" rx="8" ry="20" fill="#fff0a4" opacity="0.710100688917088" transform="rotate(132 395 254)"/><line x1="383" y1="274" x2="409" y2="274" stroke="#8a5129" stroke-width="4" stroke-linecap="round" opacity=".7"/></g><g transform="translate(3584 0)"><circle cx="354" cy="335" r="30" fill="#e8b74d" stroke="#fff0a4" stroke-width="5"/><ellipse cx="346" cy="332" rx="8" ry="20" fill="#fff0a4" opacity="0.603429901376177" transform="rotate(154 354 335)"/><line x1="342" y1="355" x2="368" y2="355" stroke="#8a5129" stroke-width="4" stroke-linecap="round" opacity=".7"/></g><g transform="translate(4096 0)"><circle cx="294" cy="390" r="30" fill="#e8b74d" stroke="#fff0a4" stroke-width="5"/><ellipse cx="286" cy="387" rx="8" ry="20" fill="#fff0a4" opacity="0.47441476581044395" transform="rotate(176 294 390)"/><line x1="282" y1="410" x2="308" y2="410" stroke="#8a5129" stroke-width="4" stroke-linecap="round" opacity=".7"/></g><g transform="translate(4608 0)"><circle cx="224" cy="404" r="30" fill="#e8b74d" stroke="#fff0a4" stroke-width="5"/><ellipse cx="216" cy="401" rx="8" ry="20" fill="#fff0a4" opacity="0.5581559480312316" transform="rotate(18 224 404)"/><line x1="212" y1="424" x2="238" y2="424" stroke="#8a5129" stroke-width="4" stroke-linecap="round" opacity=".7"/></g><g transform="translate(5120 0)"><circle cx="158" cy="379" r="30" fill="#e8b74d" stroke="#fff0a4" stroke-width="5"/><ellipse cx="150" cy="376" rx="8" ry="20" fill="#fff0a4" opacity="0.6749756633902887" transform="rotate(40 158 379)"/><line x1="146" y1="399" x2="172" y2="399" stroke="#8a5129" stroke-width="4" stroke-linecap="round" opacity=".7"/></g><g transform="translate(5632 0)"><circle cx="116" cy="324" r="30" fill="#e8b74d" stroke="#fff0a4" stroke-width="5"/><ellipse cx="108" cy="321" rx="8" ry="20" fill="#fff0a4" opacity="0.7590316575006244" transform="rotate(62 116 324)"/><line x1="104" y1="344" x2="130" y2="344" stroke="#8a5129" stroke-width="4" stroke-linecap="round" opacity=".7"/></g><g transform="translate(6144 0)"><circle cx="120" cy="254" r="30" fill="#e8b74d" stroke="#fff0a4" stroke-width="5"/><ellipse cx="112" cy="251" rx="8" ry="20" fill="#fff0a4" opacity="0.7980826633788957" transform="rotate(84 120 254)"/><line x1="108" y1="274" x2="134" y2="274" stroke="#8a5129" stroke-width="4" stroke-linecap="round" opacity=".7"/></g><g transform="translate(6656 0)"><circle cx="164" cy="184" r="30" fill="#e8b74d" stroke="#fff0a4" stroke-width="5"/><ellipse cx="156" cy="181" rx="8" ry="20" fill="#fff0a4" opacity="0.7864415935784116" transform="rotate(106 164 184)"/><line x1="152" y1="204" x2="178" y2="204" stroke="#8a5129" stroke-width="4" stroke-linecap="round" opacity=".7"/></g><g transform="translate(7168 0)"><circle cx="230" cy="135" r="30" fill="#e8b74d" stroke="#fff0a4" stroke-width="5"/><ellipse cx="222" cy="132" rx="8" ry="20" fill="#fff0a4" opacity="0.7258037637623527" transform="rotate(128 230 135)"/><line x1="218" y1="155" x2="244" y2="155" stroke="#8a5129" stroke-width="4" stroke-linecap="round" opacity=".7"/></g><g transform="translate(7680 0)"><circle cx="314" cy="116" r="30" fill="#e8b74d" stroke="#fff0a4" stroke-width="5"/><ellipse cx="306" cy="113" rx="8" ry="20" fill="#fff0a4" opacity="0.625" transform="rotate(150 314 116)"/><line x1="302" y1="136" x2="328" y2="136" stroke="#8a5129" stroke-width="4" stroke-linecap="round" opacity=".7"/></g><g transform="translate(8192 0)"><circle cx="382" cy="148" r="30" fill="#e8b74d" stroke="#fff0a4" stroke-width="5"/><ellipse cx="374" cy="145" rx="8" ry="20" fill="#fff0a4" opacity="0.498710585336023" transform="rotate(172 382 148)"/><line x1="370" y1="168" x2="396" y2="168" stroke="#8a5129" stroke-width="4" stroke-linecap="round" opacity=".7"/></g><g transform="translate(8704 0)"><circle cx="410" cy="221" r="30" fill="#e8b74d" stroke="#fff0a4" stroke-width="5"/><ellipse cx="402" cy="218" rx="8" ry="20" fill="#fff0a4" opacity="0.5346726634598837" transform="rotate(14 410 221)"/><line x1="398" y1="241" x2="424" y2="241" stroke="#8a5129" stroke-width="4" stroke-linecap="round" opacity=".7"/></g></g></svg>